<svg width="1276" height="252" viewBox="0 0 1276 252" fill="none" xmlns="http://www.w3.org/2000/svg">
<path d="M134.42 131.19C134.42 134.36 131.83 136.95 128.66 136.95H99.26C96.09 136.95 93.5 139.54 93.5 142.71V152.18C93.5 155.35 96.09 157.94 99.26 157.94H133.48C136.65 157.94 139.24 160.53 139.24 163.7V177.1C139.24 180.27 136.65 182.86 133.48 182.86H68.76C65.59 182.86 63 180.27 63 177.1V74.76C63 71.59 65.59 69 68.76 69H131.1C134.27 69 136.86 71.59 136.86 74.76V88.16C136.86 91.33 134.27 93.92 131.1 93.92H99.25C96.08 93.92 93.49 96.51 93.49 99.68V106.53C93.49 109.7 96.08 112.29 99.25 112.29H128.65C131.82 112.29 134.41 114.88 134.41 118.05V131.19H134.42Z" fill="black"/>
<path d="M156.25 74.76C156.25 71.59 158.84 69 162.01 69H180.98C184.15 69 186.74 71.59 186.74 74.76V151.55C186.74 154.72 189.33 157.31 192.5 157.31H224.82C227.99 157.31 230.58 159.9 230.58 163.07V177.1C230.58 180.27 227.99 182.86 224.82 182.86H162.01C158.84 182.86 156.25 180.27 156.25 177.1V74.76Z" fill="black"/>
<path d="M270.171 69C273.341 69 275.931 71.59 275.931 74.76V177.1C275.931 180.27 273.341 182.86 270.171 182.86H251.201C248.031 182.86 245.441 180.27 245.441 177.1V74.76C245.441 71.59 248.031 69 251.201 69H270.171Z" fill="black"/>
<path d="M319.049 100.35C319.049 97.18 316.459 94.59 313.289 94.59H295.799C292.629 94.59 290.039 92 290.039 88.83V74.76C290.039 71.59 292.629 69 295.799 69H373.349C376.519 69 379.109 71.59 379.109 74.76V88.83C379.109 92 376.519 94.59 373.349 94.59H355.309C352.139 94.59 349.549 97.18 349.549 100.35V177.1C349.549 180.27 346.959 182.86 343.789 182.86H324.819C321.649 182.86 319.059 180.27 319.059 177.1V100.35H319.049Z" fill="black"/>
<path d="M464.672 131.19C464.672 134.36 462.082 136.95 458.912 136.95H429.512C426.342 136.95 423.752 139.54 423.752 142.71V152.18C423.752 155.35 426.342 157.94 429.512 157.94H463.732C466.902 157.94 469.492 160.53 469.492 163.7V177.1C469.492 180.27 466.902 182.86 463.732 182.86H399.022C395.852 182.86 393.262 180.27 393.262 177.1V74.76C393.262 71.59 395.852 69 399.022 69H461.362C464.532 69 467.122 71.59 467.122 74.76V88.16C467.122 91.33 464.532 93.92 461.362 93.92H429.512C426.342 93.92 423.752 96.51 423.752 99.68V106.53C423.752 109.7 426.342 112.29 429.512 112.29H458.912C462.082 112.29 464.672 114.88 464.672 118.05V131.19Z" fill="black"/>
<path d="M531 74.7671C531 71.5932 533.593 69 536.767 69H555.76C558.934 69 561.527 71.5932 561.527 74.7671V151.651C561.527 154.825 564.121 157.419 567.295 157.419H599.654C602.828 157.419 605.421 160.012 605.421 163.186V177.233C605.421 180.407 602.828 183 599.654 183H536.767C533.593 183 531 180.407 531 177.233V74.7671Z" fill="black"/>
<path d="M645.077 69C648.251 69 650.844 71.5932 650.844 74.7671V177.233C650.844 180.407 648.251 183 645.077 183H626.083C622.91 183 620.316 180.407 620.316 177.233V74.7671C620.316 71.5932 622.91 69 626.083 69H645.077Z" fill="black"/>
<path d="M671.891 74.7671C671.891 71.5932 674.484 69 677.658 69H739.313C742.487 69 745.081 71.5932 745.081 74.7671V88.1835C745.081 91.3574 742.487 93.9506 739.313 93.9506H708.185C705.011 93.9506 702.418 96.5438 702.418 99.7177V109.199C702.418 112.373 705.011 114.966 708.185 114.966H736.78C739.954 114.966 742.547 117.56 742.547 120.734V133.89C742.547 137.064 739.954 139.657 736.78 139.657H708.185C705.011 139.657 702.418 142.25 702.418 145.424V177.233C702.418 180.407 699.825 183 696.651 183H677.658C674.484 183 671.891 180.407 671.891 177.233V74.7671Z" fill="black"/>
<path d="M786.182 100.389C786.182 97.2146 783.589 94.6215 780.415 94.6215H762.904C759.73 94.6215 757.137 92.0283 757.137 88.8544V74.7671C757.137 71.5932 759.73 69 762.904 69H840.549C843.723 69 846.316 71.5932 846.316 74.7671V88.8544C846.316 92.0283 843.723 94.6215 840.549 94.6215H822.487C819.313 94.6215 816.72 97.2146 816.72 100.389V177.233C816.72 180.407 814.127 183 810.953 183H791.959C788.786 183 786.192 180.407 786.192 177.233V100.389H786.182Z" fill="black"/>
<path d="M908 75.757C908 72.6488 910.539 70.1094 913.648 70.1094H932.247C935.355 70.1094 937.895 72.6488 937.895 75.757V151.048C937.895 154.156 940.434 156.696 943.542 156.696H975.232C978.34 156.696 980.879 159.235 980.879 162.343V176.099C980.879 179.207 978.34 181.747 975.232 181.747H913.648C910.539 181.747 908 179.207 908 176.099V75.757Z" fill="black"/>
<path d="M1212.89 170.882C1212.89 173.99 1210.43 177.176 1207.43 177.971C1207.43 177.971 1188.92 182.863 1174.34 182.863C1152.43 182.863 1137.4 177.392 1127.38 167.793C1116.86 157.9 1111.4 143.487 1111.48 127.505C1111.64 88.7077 1140.5 69 1176.7 69C1191.77 69 1203.69 72.765 1203.69 72.765C1206.65 73.6965 1208.46 76.9321 1207.7 79.9422L1204.45 92.8845C1203.69 95.8946 1200.66 97.5418 1197.72 96.5417C1197.72 96.5417 1189.24 93.6493 1176.52 93.6493C1158.1 93.6493 1142.86 103.297 1142.86 125.986C1142.86 146.772 1156.36 158.861 1174.66 158.861H1178.76C1181.67 158.341 1184.06 155.371 1184.06 152.262V144.34C1184.06 141.232 1181.52 138.693 1178.41 138.693H1174.76C1171.65 138.693 1169.11 136.153 1169.11 133.045V121.113C1169.11 118.004 1171.65 115.465 1174.76 115.465H1207.23C1210.34 115.465 1212.88 118.004 1212.88 121.113V170.892L1212.89 170.882Z" fill="black"/>
<path d="M1036.39 71.8272C1006.51 60.7576 987.335 91.0555 985.695 117.213H993.944C995.199 104.027 1003.46 83.889 1016.52 81.4291C1054.36 74.3199 1061.64 152.479 1032.58 168.83C1016.82 177.694 1002.67 163.352 997.478 149.282C995.592 144.173 995.117 139.212 994.297 134.088H985.925C988.368 155.768 999.159 181.031 1023.72 182.892C1074.33 186.713 1079.22 87.6936 1036.39 71.819V71.8272Z" fill="black"/>
<path d="M1064.3 73.442C1098 96.2044 1098.51 157.12 1065.12 180.44C1093.18 179.71 1102.02 143.935 1100.38 121.008C1098.99 101.747 1087.23 72.3432 1064.31 73.4338L1064.3 73.442Z" fill="black"/>
<path d="M1081.14 109.909C1077.95 94.8218 1065.18 70.6901 1047.08 72.6252C1081.39 96.2322 1080.62 156.402 1047.9 181.263C1080.39 178.065 1086.62 135.902 1081.14 109.901L1081.14 109.909Z" fill="black"/>
<path d="M1022.15 85.6113C1011.11 85.6113 1001.91 99.1736 999.691 117.262H1015.44C1016.94 113.622 1019.39 111.244 1022.16 111.244C1026.73 111.244 1030.42 117.697 1030.42 125.659C1030.42 133.621 1026.72 140.074 1022.16 140.074C1019.4 140.074 1016.97 137.712 1015.47 134.096H999.708C1001.93 152.16 1011.14 165.698 1022.16 165.698C1034.84 165.698 1045.13 147.773 1045.13 125.659C1045.13 103.544 1034.84 85.6195 1022.16 85.6195L1022.15 85.6113Z" fill="black"/>
<path d="M1020.66 121.648H957.65C955.436 121.648 953.641 123.444 953.641 125.658C953.641 127.873 955.436 129.668 957.65 129.668H1020.66C1022.87 129.668 1024.67 127.873 1024.67 125.658C1024.67 123.444 1022.87 121.648 1020.66 121.648Z" fill="black"/>
</svg>
